<svg version="1.1" id="Camada_1" xmlns="http://www.w3.org/2000/svg" xmlns:xlink="http://www.w3.org/1999/xlink" x="0px" y="0px"
	 xml:space="preserve">
<style type="text/css">
	.st0{fill:#D12228;}
	.st1{fill:#4DBA6D;}
	.st2{fill:#ECBD1D;}
</style>
<g id="XMLID_2_">
	<g id="XMLID_3_">
		<g id="XMLID_8_">
			<g id="XMLID_9_">
				<path id="XMLID_12_" class="st0" d="M0,72.6l14.9-17.8c9.1,6.9,19.5,9.8,29.3,9.8c5,0,7.2-1.3,7.2-3.6v-0.2
					c0-2.4-2.6-3.7-11.6-5.5C21,51.5,4.5,46.1,4.5,28.4v-0.2C4.5,12.3,17,0,40,0c16.1,0,28.1,3.8,37.7,11.5L64.1,30.3
					c-7.9-5.7-17.3-8.2-25.1-8.2c-4.2,0-6.1,1.4-6.1,3.5v0.2c0,2.3,2.3,3.7,11.1,5.4c21.4,3.9,35.7,10.1,35.7,27v0.2
					c0,17.6-14.4,28.3-36.9,28.3C25.9,86.7,10.6,81.9,0,72.6z"/>
				<path id="XMLID_10_" class="st0" d="M79,1.6h29.1l17.9,29.4L144,1.6h29.1v83.6h-27.8V43.7l-19.2,29.7h-0.5l-19.2-29.7v41.4H79
					V1.6z"/>
			</g>
		</g>
		<g id="XMLID_4_">
			<rect id="XMLID_7_" x="79.1" y="81.4" class="st1" width="94.2" height="3.8"/>
			<rect id="XMLID_6_" x="79.1" y="77.6" class="st0" width="94.2" height="3.8"/>
			<rect id="XMLID_5_" x="79.1" y="73.8" class="st2" width="94.2" height="3.8"/>
		</g>
	</g>
</g>
</svg>
