<?xml version="1.0" encoding="utf-8"?>
<!-- Generator: Adobe Illustrator 16.0.0, SVG Export Plug-In . SVG Version: 6.00 Build 0)  -->
<!DOCTYPE svg PUBLIC "-//W3C//DTD SVG 1.1//EN" "http://www.w3.org/Graphics/SVG/1.1/DTD/svg11.dtd">
<svg version="1.1" id="Layer_1" xmlns="http://www.w3.org/2000/svg" xmlns:xlink="http://www.w3.org/1999/xlink" x="0px" y="0px"
	 width="89.9px" height="73.27px" viewBox="0 0 89.9 73.27" enable-background="new 0 0 89.9 73.27" xml:space="preserve">
<g>
	<g>
		<circle fill="#ECEDEE" cx="60.74" cy="17.853" r="6.404"/>
		<circle fill="#D73370" cx="44.572" cy="19.637" r="7.339"/>
		<path fill="#D73370" d="M51.479,27.956h-5.155c0.041,0.076,0.035,0.18-0.027,0.294l-1.679,3.016c-0.133,0.237-0.349,0.237-0.48,0
			L42.46,28.25c-0.062-0.114-0.067-0.218-0.027-0.294h-4.767c-1.904,0-3.455,1.549-3.455,3.452v17.27
			c0,1.904,1.551,3.453,3.455,3.453v0.409v0.454v16.813c0,1.906,1.548,3.455,3.451,3.455c1.904,0,3.455-1.549,3.455-3.455
			c0,1.906,1.55,3.455,3.454,3.455c1.902,0,3.453-1.549,3.453-3.455V52.995v-0.454v-0.409c1.904,0,3.453-1.549,3.453-3.453v-17.27
			C54.932,29.505,53.384,27.956,51.479,27.956z"/>
		<circle fill="#ECEDEE" cx="28.473" cy="17.853" r="6.404"/>
		<circle fill="#ECEDEE" cx="73.338" cy="16.53" r="5.082"/>
		<circle fill="#ECEDEE" cx="15.805" cy="16.53" r="5.082"/>
		<path fill="#ECEDEE" d="M78.118,22.29h-3.3c0.028,0.053,0.024,0.125-0.021,0.203l-1.16,2.088c-0.092,0.164-0.241,0.164-0.334,0
			l-1.16-2.088c-0.045-0.079-0.049-0.15-0.021-0.203h-3.568c-1.033,0-1.912,0.658-2.246,1.577h0.388c2.35,0,4.258,1.91,4.258,4.258
			v15.069c0,1.683-0.979,3.14-2.398,3.83v4.24c0,1.319,1.073,2.392,2.391,2.392c1.318,0,2.393-1.071,2.393-2.392
			c0,1.319,1.071,2.392,2.391,2.392s2.391-1.071,2.391-2.392v-11.64v-0.314v-0.284c1.318,0,2.394-1.072,2.394-2.391V24.68
			C80.51,23.362,79.436,22.29,78.118,22.29z"/>
		<path fill="#ECEDEE" d="M66.696,25.113h-4.16c0.036,0.067,0.031,0.157-0.023,0.258L61.049,28c-0.115,0.208-0.305,0.208-0.42,0
			l-1.465-2.63c-0.056-0.101-0.061-0.19-0.023-0.258h-4.498c-1.162,0-2.17,0.66-2.673,1.624c2.362,0.246,4.209,2.247,4.209,4.673
			v17.27c0,1.374-0.593,2.611-1.536,3.472v9.483c0,1.663,1.352,3.015,3.013,3.015c1.662,0,3.015-1.352,3.015-3.015
			c0,1.663,1.353,3.015,3.015,3.015c1.661,0,3.014-1.352,3.014-3.015V46.961v-0.396v-0.356c1.662,0,3.015-1.353,3.015-3.013V28.126
			C69.711,26.464,68.358,25.113,66.696,25.113z"/>
		<path fill="#ECEDEE" d="M18.186,43.196V28.126c0-2.349,1.911-4.258,4.26-4.258h0.389c-0.334-0.919-1.214-1.577-2.246-1.577h-3.301
			c0.027,0.053,0.023,0.125-0.02,0.203l-1.162,2.088c-0.092,0.164-0.24,0.164-0.333,0l-1.161-2.089
			c-0.045-0.079-0.049-0.15-0.02-0.203h-3.569c-1.318,0-2.391,1.071-2.391,2.39v11.956c0,1.318,1.071,2.391,2.391,2.391v0.284v0.314
			v11.641c0,1.319,1.073,2.392,2.393,2.392c1.316,0,2.391-1.071,2.391-2.392c0,1.319,1.073,2.392,2.392,2.392
			c1.319,0,2.392-1.071,2.392-2.392v-4.24C19.17,46.334,18.186,44.877,18.186,43.196z"/>
		<path fill="#ECEDEE" d="M32.966,48.678v-17.27c0-2.426,1.847-4.427,4.209-4.673c-0.503-0.964-1.514-1.624-2.673-1.624h-4.16
			c0.036,0.067,0.03,0.157-0.024,0.258L28.852,28c-0.115,0.208-0.304,0.208-0.42,0l-1.464-2.63c-0.057-0.101-0.062-0.19-0.024-0.258
			h-4.498c-1.662,0-3.014,1.352-3.014,3.014v15.069c0,1.66,1.352,3.013,3.014,3.013v0.356v0.396v14.672
			c0,1.663,1.353,3.015,3.015,3.015c1.66,0,3.014-1.352,3.014-3.015c0,1.663,1.353,3.015,3.014,3.015
			c1.662,0,3.015-1.352,3.015-3.015v-9.484C33.557,51.289,32.966,50.051,32.966,48.678z"/>
		<path fill="#AF224B" d="M44.572,12.297L44.572,12.297l-0.001,14.679h0.001c4.054,0,7.339-3.285,7.339-7.339
			C51.911,15.584,48.626,12.297,44.572,12.297z"/>
		<path fill="#AF224B" d="M51.479,27.956h-5.155c0.041,0.076,0.035,0.18-0.027,0.294l-1.679,3.016
			c-0.015,0.025-0.029,0.047-0.047,0.068v38.499c0-0.008,0.001-0.017,0.001-0.023c0,1.906,1.55,3.455,3.454,3.455
			c1.902,0,3.453-1.549,3.453-3.455V52.995v-0.454v-0.409c1.904,0,3.453-1.549,3.453-3.453v-17.27
			C54.932,29.505,53.384,27.956,51.479,27.956z"/>
		<path fill="#D8D8D8" d="M60.74,11.449L60.74,11.449l-0.001,12.808h0.001c3.537,0,6.404-2.866,6.404-6.403
			C67.144,14.316,64.277,11.449,60.74,11.449z"/>
		<path fill="#D8D8D8" d="M66.696,25.113h-4.16c0.036,0.067,0.031,0.157-0.023,0.258L61.049,28c-0.082,0.149-0.203,0.188-0.31,0.125
			v34.155c0.297,1.354,1.504,2.367,2.943,2.367c1.661,0,3.014-1.352,3.014-3.015V46.961v-0.396v-0.356
			c1.662,0,3.015-1.353,3.015-3.013V28.126C69.711,26.464,68.358,25.113,66.696,25.113z"/>
		<path fill="#D8D8D8" d="M73.409,11.451v10.157c2.771-0.039,5.009-2.297,5.009-5.078S76.18,11.49,73.409,11.451z"/>
		<path fill="#D8D8D8" d="M78.118,22.29h-3.3c0.028,0.053,0.024,0.125-0.021,0.203l-1.16,2.088c-0.062,0.11-0.149,0.146-0.229,0.106
			v27.154c0.261,1.041,1.199,1.814,2.318,1.814c1.318,0,2.391-1.071,2.391-2.392v-11.64v-0.314v-0.284
			c1.318,0,2.394-1.072,2.394-2.391V24.68C80.51,23.362,79.436,22.29,78.118,22.29z"/>
		<path fill="#D8D8D8" d="M28.473,11.449v12.808c3.536,0,6.404-2.866,6.404-6.403C34.879,14.316,32.01,11.449,28.473,11.449z"/>
		<path fill="#D8D8D8" d="M32.966,48.678v-17.27c0-2.426,1.847-4.427,4.209-4.673c-0.503-0.964-1.514-1.624-2.673-1.624h-4.16
			c0.036,0.067,0.03,0.157-0.024,0.258L28.852,28c-0.103,0.185-0.263,0.204-0.379,0.06v33.579c0.004,1.66,1.354,3.009,3.014,3.009
			c1.662,0,3.015-1.352,3.015-3.015v-9.484C33.557,51.289,32.966,50.051,32.966,48.678z"/>
		<path fill="#D8D8D8" d="M16.106,11.458v10.144c2.666-0.156,4.78-2.366,4.78-5.07C20.886,13.826,18.772,11.615,16.106,11.458z"/>
		<path fill="#D8D8D8" d="M22.446,23.867h0.389c-0.334-0.919-1.214-1.577-2.246-1.577h-3.301c0.027,0.053,0.023,0.125-0.02,0.203
			l-1.162,2.087v27.845c0.41,0.734,1.193,1.231,2.091,1.231c1.318,0,2.392-1.071,2.392-2.392v-4.24
			c-1.419-0.69-2.401-2.147-2.401-3.83V28.125C18.186,25.778,20.097,23.867,22.446,23.867z"/>
	</g>
	<g>
		<path fill="#ECEDEE" d="M83.721,0c-3.412,0-6.178,1.983-6.178,4.434c0,1.155,0.614,2.207,1.625,2.996l-1.13,2.465l3.151-1.417
			c0.772,0.249,1.629,0.39,2.53,0.39c3.413,0,6.18-1.984,6.18-4.434C89.901,1.984,87.135,0,83.721,0z M81.219,4.962
			c-0.322,0-0.584-0.261-0.584-0.583s0.262-0.583,0.584-0.583s0.584,0.261,0.584,0.583S81.542,4.962,81.219,4.962z M83.721,4.962
			c-0.322,0-0.584-0.261-0.584-0.583s0.262-0.583,0.584-0.583s0.584,0.261,0.584,0.583S84.045,4.962,83.721,4.962z M86.225,4.962
			c-0.323,0-0.584-0.261-0.584-0.583s0.261-0.583,0.584-0.583c0.322,0,0.584,0.261,0.584,0.583S86.549,4.962,86.225,4.962z"/>
	</g>
	<g>
		<path fill="#ECEDEE" d="M67.836,0c-3.413,0-6.181,1.983-6.181,4.434c0,1.155,0.617,2.207,1.626,2.996l-1.128,2.465l3.15-1.417
			c0.772,0.249,1.629,0.39,2.531,0.39c3.411,0,6.178-1.984,6.178-4.434C74.012,1.984,71.247,0,67.836,0z M65.332,4.962
			c-0.322,0-0.585-0.261-0.585-0.583s0.263-0.583,0.585-0.583c0.321,0,0.584,0.261,0.584,0.583S65.653,4.962,65.332,4.962z
			 M67.836,4.962c-0.322,0-0.584-0.261-0.584-0.583s0.262-0.583,0.584-0.583c0.321,0,0.584,0.261,0.584,0.583
			S68.157,4.962,67.836,4.962z M70.339,4.962c-0.322,0-0.584-0.261-0.584-0.583s0.262-0.583,0.584-0.583
			c0.321,0,0.583,0.261,0.583,0.583S70.66,4.962,70.339,4.962z"/>
	</g>
	<g>
		<path fill="#ECEDEE" d="M-0.001,4.434c0,2.448,2.767,4.434,6.179,4.434c0.901,0,1.758-0.141,2.531-0.39l3.149,1.417L10.729,7.43
			c1.01-0.789,1.627-1.84,1.627-2.996C12.356,1.985,9.59,0,6.177,0C2.764,0-0.001,1.984-0.001,4.434z M8.096,4.378
			c0-0.323,0.262-0.583,0.584-0.583s0.584,0.261,0.584,0.583S9.003,4.961,8.68,4.961S8.096,4.701,8.096,4.378z M5.593,4.378
			c0-0.323,0.262-0.583,0.584-0.583S6.76,4.056,6.76,4.378S6.499,4.961,6.177,4.961S5.593,4.701,5.593,4.378z M3.091,4.378
			c0-0.323,0.262-0.583,0.583-0.583c0.322,0,0.584,0.261,0.584,0.583S3.996,4.961,3.674,4.961C3.351,4.962,3.091,4.701,3.091,4.378z
			"/>
	</g>
	<g>
		<path fill="#ECEDEE" d="M15.885,4.434c0,2.448,2.767,4.434,6.18,4.434c0.9,0,1.758-0.141,2.529-0.39l3.15,1.417L26.617,7.43
			c1.01-0.789,1.625-1.84,1.625-2.996C28.243,1.984,25.477,0,22.065,0C18.652,0,15.885,1.984,15.885,4.434z M23.984,4.378
			c0-0.323,0.262-0.583,0.584-0.583s0.583,0.261,0.583,0.583s-0.261,0.583-0.583,0.583S23.984,4.701,23.984,4.378z M21.48,4.378
			c0-0.323,0.263-0.583,0.585-0.583s0.583,0.261,0.583,0.583s-0.261,0.583-0.583,0.583S21.48,4.701,21.48,4.378z M18.977,4.378
			c0-0.323,0.262-0.583,0.584-0.583s0.584,0.261,0.584,0.583s-0.262,0.583-0.584,0.583S18.977,4.701,18.977,4.378z"/>
	</g>
</g>
</svg>
