<?xml version="1.0" encoding="utf-8"?>
<!-- Generator: Adobe Illustrator 16.0.0, SVG Export Plug-In . SVG Version: 6.00 Build 0)  -->
<!DOCTYPE svg PUBLIC "-//W3C//DTD SVG 1.1//EN" "http://www.w3.org/Graphics/SVG/1.1/DTD/svg11.dtd">
<svg version="1.1" id="Layer_1" xmlns="http://www.w3.org/2000/svg" xmlns:xlink="http://www.w3.org/1999/xlink" x="0px" y="0px"
	 width="99.88px" height="102.65px" viewBox="0 0 99.88 102.65" xml:space="preserve">
<g>
	<path style="fill:#363639;" d="M64.097,13.746h1.566c6.921,0,12.041,2.101,15.354,6.315c3.312,4.204,4.968,10.718,4.968,19.532
		h13.896V0H0v39.593h13.739c0-8.764,1.686-15.262,5.045-19.503c3.363-4.224,8.531-6.344,15.506-6.344h1.488v45.018h28.318V13.746z"
		/>
	<path style="fill:#363639;" d="M35.262,85.953c-0.353,1.117-0.972,1.82-1.872,2.121c-1.493,0.5-3.394,0.863-5.716,1.091
		c-2.313,0.218-5.065,0.334-8.246,0.334v13.146h60.88V89.498c-4.536-0.1-7.694-0.251-9.486-0.452
		c-1.794-0.196-3.211-0.523-4.256-0.973c-0.949-0.301-1.6-1.003-1.943-2.121c-0.217-0.672-0.355-1.78-0.437-3.299h-28.49
		C35.62,84.172,35.474,85.268,35.262,85.953z"/>
	<rect x="35.774" y="60.597" style="fill:#C92D61;" width="28.306" height="6.755"/>
	<rect x="35.774" y="67.352" style="fill:#AF224B;" width="28.306" height="6.762"/>
	<rect x="35.774" y="74.113" style="fill:#81142A;" width="28.306" height="6.751"/>
</g>
</svg>
